# xmcd
#
# Track frame offsets: 
#        150
#        23109
#        42784
#        57175
#        75674
#        96133
#        113801
#        130472
#        146333
#        164579
#        183025
#        194482
#        210854
#
# Disc length: 3128 seconds
#
# Revision: 0
# Processed by: cddbd v1.5.2PL0 Copyright (c) Steve Scherf et al.
# Submitted via: ExactAudioCopyFreeDBPlugin 1.0
#
DISCID=a80c360d
DTITLE=Patty Griffin - Servant of Love
DYEAR=2015
DGENRE=Country
TTITLE0=Servant of Love
TTITLE1=Gunpowder
TTITLE2=Good and Gone
TTITLE3=Hurt A Little While
TTITLE4=250,000 Miles
TTITLE5=Made of the Sun
TTITLE6=Everything's Changed
TTITLE7=Rider of Days
TTITLE8=There Isn't One Way
TTITLE9=Noble Ground
TTITLE10=Snake Charmer
TTITLE11=You Never Asked Me
TTITLE12=Shine A Different Way
EXTD=
EXTT0=
EXTT1=
EXTT2=
EXTT3=
EXTT4=
EXTT5=
EXTT6=
EXTT7=
EXTT8=
EXTT9=
EXTT10=
EXTT11=
EXTT12=
PLAYORDER=
